<!-- Heart--> <svg xmlns="http://www.w3.org/2000/svg" viewBox="0 0 32 32" aria-hidden="true" role="presentation" focusable="false" style="display: block; fill: rgba(0, 0, 0, 0.5); height: 24px; width: 24px; stroke: var(--linaria-theme_palette-icon-primary-inverse); stroke-width: 2; overflow: visible;"><path d="M16 28c7-4.73 14-10 14-17a6.98 6.98 0 0 0-7-7c-1.8 0-3.58.68-4.95 2.05L16 8.1l-2.05-2.05a6.98 6.98 0 0 0-9.9 0A6.98 6.98 0 0 0 2 11c0 7 7 12.27 14 17z"></path></svg>
<!-- Carousle arrow right--> <svg xmlns="http://www.w3.org/2000/svg" viewBox="0 0 32 32" aria-hidden="true" role="presentation" focusable="false" style="display: block; fill: none; height: 12px; width: 12px; stroke: currentcolor; stroke-width: 5.33333; overflow: visible;"><path fill="none" d="m12 4 11.3 11.3a1 1 0 0 1 0 1.4L12 28"></path></svg>
<!-- Carousle arrow left--> <svg xmlns="http://www.w3.org/2000/svg" viewBox="0 0 32 32" aria-hidden="true" role="presentation" focusable="false" style="display: block; fill: none; height: 12px; width: 12px; stroke: currentcolor; stroke-width: 5.33333; overflow: visible;"><path fill="none" d="M20 28 8.7 16.7a1 1 0 0 1 0-1.4L20 4"></path></svg>
<!-- Language switch--> <svg xmlns="http://www.w3.org/2000/svg" viewBox="0 0 16 16" aria-hidden="true" role="presentation" focusable="false" style="display: block; height: 16px; width: 16px; fill: currentcolor;"><path d="M8 .25a7.77 7.77 0 0 1 7.75 7.78 7.75 7.75 0 0 1-7.52 7.72h-.25A7.75 7.75 0 0 1 .25 8.24v-.25A7.75 7.75 0 0 1 8 .25zm1.95 8.5h-3.9c.15 2.9 1.17 5.34 1.88 5.5H8c.68 0 1.72-2.37 1.93-5.23zm4.26 0h-2.76c-.09 1.96-.53 3.78-1.18 5.08A6.26 6.26 0 0 0 14.17 9zm-9.67 0H1.8a6.26 6.26 0 0 0 3.94 5.08 12.59 12.59 0 0 1-1.16-4.7l-.03-.38zm1.2-6.58-.12.05a6.26 6.26 0 0 0-3.83 5.03h2.75c.09-1.83.48-3.54 1.06-4.81zm2.25-.42c-.7 0-1.78 2.51-1.94 5.5h3.9c-.15-2.9-1.18-5.34-1.89-5.5h-.07zm2.28.43.03.05a12.95 12.95 0 0 1 1.15 5.02h2.75a6.28 6.28 0 0 0-3.93-5.07z"></path></svg>
<!-- 3 lines user menu--> <svg xmlns="http://www.w3.org/2000/svg" viewBox="0 0 32 32" aria-hidden="true" role="presentation" focusable="false" style="display: block; fill: none; height: 16px; width: 16px; stroke: currentcolor; stroke-width: 3; overflow: visible;"><g fill="none"><path d="M2 16h28M2 24h28M2 8h28"></path></g></svg>
<!-- Share stay--> <svg viewBox="0 0 32 32" xmlns="http://www.w3.org/2000/svg" aria-hidden="true" role="presentation" focusable="false" style="display: block; fill: none; height: 16px; width: 16px; stroke: currentcolor; stroke-width: 2; overflow: visible;"><path d="m27 18v9c0 1.1046-.8954 2-2 2h-18c-1.10457 0-2-.8954-2-2v-9m11-15v21m-10-11 9.2929-9.29289c.3905-.39053 1.0237-.39053 1.4142 0l9.2929 9.29289" fill="none"></path></svg>
<!-- Black star review--> <svg xmlns="http://www.w3.org/2000/svg" viewBox="0 0 32 32" aria-hidden="true" role="presentation" focusable="false" style="display: block; height: 16px; width: 16px; fill: currentcolor;"><path fill-rule="evenodd" d="m15.1 1.58-4.13 8.88-9.86 1.27a1 1 0 0 0-.54 1.74l7.3 6.57-1.97 9.85a1 1 0 0 0 1.48 1.06l8.62-5 8.63 5a1 1 0 0 0 1.48-1.06l-1.97-9.85 7.3-6.57a1 1 0 0 0-.55-1.73l-9.86-1.28-4.12-8.88a1 1 0 0 0-1.82 0z"></path></svg>
<!-- Ask a question chat--> <svg viewBox="0 0 24 24" role="presentation" aria-hidden="true" focusable="false" style="height: 16px; width: 16px; display: block; fill: currentcolor;"><path d="m5.49 0c-3.02 0-5.49 2.46-5.49 5.49v9.02c0 3.03 2.46 5.49 5.5 5.49h3.23l2.87 3.8c.2.27.6.27.8 0l2.87-3.8h3.23c3.03 0 5.5-2.46 5.5-5.49v-9.02c0-3.03-2.46-5.49-5.49-5.49zm13.01 19h-3.47c-.16 0-.31.07-.4.2l-2.63 3.47-2.63-3.47c-.09-.13-.24-.2-.4-.2h-3.47c-2.48 0-4.5-2.01-4.5-4.49v-9.02c0-2.47 2.02-4.49 4.49-4.49h13.02c2.48 0 4.49 2.01 4.49 4.49v9.02c0 2.48-2.02 4.49-4.5 4.49z" fill-rule="evenodd"></path></svg>
<!-- Amenity- Pool--> <svg xmlns="http://www.w3.org/2000/svg" viewBox="0 0 32 32" aria-hidden="true" role="presentation" focusable="false" style="display: block; height: 24px; width: 24px; fill: currentcolor;"><path d="M24 26c.99 0 1.95.35 2.67 1 .3.29.71.45 1.14.5H28v2h-.23a3.96 3.96 0 0 1-2.44-1A1.98 1.98 0 0 0 24 28c-.5 0-.98.17-1.33.5a3.98 3.98 0 0 1-2.67 1 3.98 3.98 0 0 1-2.67-1A1.98 1.98 0 0 0 16 28c-.5 0-.98.17-1.33.5a3.98 3.98 0 0 1-2.67 1 3.98 3.98 0 0 1-2.67-1A1.98 1.98 0 0 0 8 28c-.5 0-.98.17-1.33.5a3.96 3.96 0 0 1-2.44 1H4v-2h.19a1.95 1.95 0 0 0 1.14-.5A3.98 3.98 0 0 1 8 26c.99 0 1.95.35 2.67 1 .35.33.83.5 1.33.5.5 0 .98-.17 1.33-.5A3.97 3.97 0 0 1 16 26c.99 0 1.95.35 2.67 1 .35.33.83.5 1.33.5.5 0 .98-.17 1.33-.5A3.98 3.98 0 0 1 24 26zm0-5c.99 0 1.95.35 2.67 1 .3.29.71.45 1.14.5H28v2h-.23a3.96 3.96 0 0 1-2.44-1A1.98 1.98 0 0 0 24 23c-.5 0-.98.17-1.33.5a3.98 3.98 0 0 1-2.67 1 3.98 3.98 0 0 1-2.67-1A1.98 1.98 0 0 0 16 23c-.5 0-.98.17-1.33.5a3.98 3.98 0 0 1-2.67 1 3.98 3.98 0 0 1-2.67-1A1.98 1.98 0 0 0 8 23c-.5 0-.98.17-1.33.5a3.96 3.96 0 0 1-2.44 1H4v-2h.19a1.95 1.95 0 0 0 1.14-.5A3.98 3.98 0 0 1 8 21c.99 0 1.95.35 2.67 1 .35.33.83.5 1.33.5.5 0 .98-.17 1.33-.5A3.97 3.97 0 0 1 16 21c.99 0 1.95.35 2.67 1 .35.33.83.5 1.33.5.5 0 .98-.17 1.33-.5A3.98 3.98 0 0 1 24 21zM20 3a4 4 0 0 1 4 3.8V9h4v2h-4v5a4 4 0 0 1 2.5.86l.17.15c.3.27.71.44 1.14.48l.19.01v2h-.23a3.96 3.96 0 0 1-2.44-1A1.98 1.98 0 0 0 24 18c-.5 0-.98.17-1.33.5a3.98 3.98 0 0 1-2.67 1 3.98 3.98 0 0 1-2.67-1A1.98 1.98 0 0 0 16 18c-.5 0-.98.17-1.33.5a3.98 3.98 0 0 1-2.67 1 3.98 3.98 0 0 1-2.67-1A1.98 1.98 0 0 0 8 18c-.5 0-.98.17-1.33.5a3.96 3.96 0 0 1-2.44 1H4v-2h.19a1.95 1.95 0 0 0 1.14-.5A3.98 3.98 0 0 1 8 16c.99 0 1.95.35 2.67 1 .35.33.83.5 1.33.5.5 0 .98-.17 1.33-.5a3.96 3.96 0 0 1 2.44-1H16v-5H4V9h12V7a2 2 0 0 0-4-.15V7h-2a4 4 0 0 1 7-2.65A3.98 3.98 0 0 1 20 3zm-2 13.52.46.31.21.18c.35.31.83.49 1.33.49a2 2 0 0 0 1.2-.38l.13-.11c.2-.19.43-.35.67-.49V11h-4zM20 5a2 2 0 0 0-2 1.85V9h4V7a2 2 0 0 0-2-2z"></path></svg>
<!-- Amenity- Kitchen--> <svg xmlns="http://www.w3.org/2000/svg" viewBox="0 0 32 32" aria-hidden="true" role="presentation" focusable="false" style="display: block; height: 24px; width: 24px; fill: currentcolor;"><path d="M26 1a5 5 0 0 1 5 5c0 6.39-1.6 13.19-4 14.7V31h-2V20.7c-2.36-1.48-3.94-8.07-4-14.36v-.56A5 5 0 0 1 26 1zm-9 0v18.12c2.32.55 4 3 4 5.88 0 3.27-2.18 6-5 6s-5-2.73-5-6c0-2.87 1.68-5.33 4-5.88V1zM2 1h1c4.47 0 6.93 6.37 7 18.5V21H4v10H2zm14 20c-1.6 0-3 1.75-3 4s1.4 4 3 4 3-1.75 3-4-1.4-4-3-4zM4 3.24V19h4l-.02-.96-.03-.95C7.67 9.16 6.24 4.62 4.22 3.36L4.1 3.3zm19 2.58v.49c.05 4.32 1.03 9.13 2 11.39V3.17a3 3 0 0 0-2 2.65zm4-2.65V17.7c.99-2.31 2-7.3 2-11.7a3 3 0 0 0-2-2.83z"></path></svg>
<!-- Amenity- Wifi--> <svg xmlns="http://www.w3.org/2000/svg" viewBox="0 0 32 32" aria-hidden="true" role="presentation" focusable="false" style="display: block; height: 24px; width: 24px; fill: currentcolor;"><path d="M16 20.33a3.67 3.67 0 1 1 0 7.34 3.67 3.67 0 0 1 0-7.34zm0 2a1.67 1.67 0 1 0 0 3.34 1.67 1.67 0 0 0 0-3.34zM16 15a9 9 0 0 1 8.04 4.96l-1.51 1.51a7 7 0 0 0-13.06 0l-1.51-1.51A9 9 0 0 1 16 15zm0-5.33c4.98 0 9.37 2.54 11.94 6.4l-1.45 1.44a12.33 12.33 0 0 0-20.98 0l-1.45-1.45A14.32 14.32 0 0 1 16 9.66zm0-5.34c6.45 0 12.18 3.1 15.76 7.9l-1.43 1.44a17.64 17.64 0 0 0-28.66 0L.24 12.24c3.58-4.8 9.3-7.9 15.76-7.9z"></path></svg>
<!-- Amenity- TV--> <svg xmlns="http://www.w3.org/2000/svg" viewBox="0 0 32 32" aria-hidden="true" role="presentation" focusable="false" style="display: block; height: 24px; width: 24px; fill: currentcolor;"><path d="M9 29v-2h2v-2H6a5 5 0 0 1-5-4.78V8a5 5 0 0 1 4.78-5H26a5 5 0 0 1 5 4.78V20a5 5 0 0 1-4.78 5H21v2h2v2zm10-4h-6v2h6zm7-20H6a3 3 0 0 0-3 2.82V20a3 3 0 0 0 2.82 3H26a3 3 0 0 0 3-2.82V8a3 3 0 0 0-2.82-3z"></path></svg>
<!-- Amenity- Washer--> <svg xmlns="http://www.w3.org/2000/svg" viewBox="0 0 32 32" aria-hidden="true" role="presentation" focusable="false" style="display: block; height: 24px; width: 24px; fill: currentcolor;"><path d="M26.29 2a3 3 0 0 1 2.96 2.58c.5 3.56.75 7.37.75 11.42s-.25 7.86-.75 11.42a3 3 0 0 1-2.79 2.57l-.17.01H5.7a3 3 0 0 1-2.96-2.58C2.25 23.86 2 20.05 2 16s.25-7.86.75-11.42a3 3 0 0 1 2.79-2.57L5.7 2zm0 2H5.72a1 1 0 0 0-1 .86A80.6 80.6 0 0 0 4 16c0 3.96.24 7.67.73 11.14a1 1 0 0 0 .87.85l.11.01h20.57a1 1 0 0 0 1-.86c.48-3.47.72-7.18.72-11.14 0-3.96-.24-7.67-.73-11.14A1 1 0 0 0 26.3 4zM16 7a9 9 0 1 1 0 18 9 9 0 0 1 0-18zm-5.84 7.5c-.34 0-.68.02-1.02.07a7 7 0 0 0 13.1 4.58 9.09 9.09 0 0 1-6.9-2.37l-.23-.23a6.97 6.97 0 0 0-4.95-2.05zM16 9a7 7 0 0 0-6.07 3.5h.23c2.26 0 4.44.84 6.12 2.4l.24.24a6.98 6.98 0 0 0 6.4 1.9A7 7 0 0 0 16 9zM7 6a1 1 0 1 1 0 2 1 1 0 0 1 0-2z"></path></svg>
<!-- Amenity- Dryer--> <svg xmlns="http://www.w3.org/2000/svg" viewBox="0 0 32 32" aria-hidden="true" role="presentation" focusable="false" style="display: block; height: 24px; width: 24px; fill: currentcolor;"><path d="M26.29 2a3 3 0 0 1 2.96 2.58c.5 3.56.75 7.37.75 11.42s-.25 7.86-.75 11.42a3 3 0 0 1-2.79 2.57l-.17.01H5.7a3 3 0 0 1-2.96-2.58C2.25 23.86 2 20.05 2 16s.25-7.86.75-11.42a3 3 0 0 1 2.79-2.57L5.7 2zm0 2H5.72a1 1 0 0 0-1 .86A80.6 80.6 0 0 0 4 16c0 3.96.24 7.67.73 11.14a1 1 0 0 0 .87.85l.11.01h20.57a1 1 0 0 0 1-.86c.48-3.47.72-7.18.72-11.14 0-3.96-.24-7.67-.73-11.14a1 1 0 0 0-.87-.85zM16 7a9 9 0 1 1 0 18 9 9 0 0 1 0-18zm0 2a7 7 0 1 0 0 14 7 7 0 0 0 0-14zm-4.8 5.58c1.36.2 2.64.8 3.68 1.75l.46.45a8.97 8.97 0 0 0 4.62 2.28 5.02 5.02 0 0 1-2.01 1.55 10.98 10.98 0 0 1-4.26-2.65 4.96 4.96 0 0 0-2.66-1.38 4.68 4.68 0 0 1 .17-2zm3.09-3.28c1.34.55 2.58 1.36 3.64 2.42a4.97 4.97 0 0 0 3 1.44 4.99 4.99 0 0 1-.07 2 6.97 6.97 0 0 1-4.11-1.8l-.47-.45a8.96 8.96 0 0 0-4.07-2.17 5 5 0 0 1 2.08-1.44zM7 6a1 1 0 1 1 0 2 1 1 0 0 1 0-2z"></path></svg>
<!-- Amenity- Hair conditioning--> <svg xmlns="http://www.w3.org/2000/svg" viewBox="0 0 32 32" aria-hidden="true" role="presentation" focusable="false" style="display: block; height: 24px; width: 24px; fill: currentcolor;"><path d="M17 1v4.03l4.03-2.32 1 1.73L17 7.34v6.93l6-3.47V5h2v4.65l3.49-2.02 1 1.74L26 11.38l4.03 2.33-1 1.73-5.03-2.9L18 16l6 3.46 5.03-2.9 1 1.73L26 20.62l3.49 2.01-1 1.74L25 22.35V27h-2v-5.8l-6-3.47v6.93l5.03 2.9-1 1.73L17 26.97V31h-2v-4.03l-4.03 2.32-1-1.73 5.03-2.9v-6.93L9 21.2V27H7v-4.65l-3.49 2.02-1-1.74L6 20.62l-4.03-2.33 1-1.73L8 19.46 14 16l-6-3.46-5.03 2.9-1-1.73L6 11.38 2.51 9.37l1-1.74L7 9.65V5h2v5.8l6 3.47V7.34l-5.03-2.9 1-1.73L15 5.03V1z"></path></svg>
<!-- Amenity- Hair Dryer--> <svg xmlns="http://www.w3.org/2000/svg" viewBox="0 0 32 32" aria-hidden="true" role="presentation" focusable="false" style="display: block; height: 24px; width: 24px; fill: currentcolor;"><path d="M14 27v.2a4 4 0 0 1-3.8 3.8H4v-2h6.15a2 2 0 0 0 1.84-1.84L12 27zM10 1c.54 0 1.07.05 1.58.14l.38.07 17.45 3.65a2 2 0 0 1 1.58 1.79l.01.16v6.38a2 2 0 0 1-1.43 1.91l-.16.04-13.55 2.83 1.76 6.5A2 2 0 0 1 15.87 27l-.18.01h-3.93a2 2 0 0 1-1.88-1.32l-.05-.15-1.88-6.76A9 9 0 0 1 10 1zm5.7 24-1.8-6.62-1.81.38a9 9 0 0 1-1.67.23h-.33L11.76 25zM10 3a7 7 0 1 0 1.32 13.88l.33-.07L29 13.18V6.8L11.54 3.17A7.03 7.03 0 0 0 10 3zm0 2a5 5 0 1 1 0 10 5 5 0 0 1 0-10zm0 2a3 3 0 1 0 0 6 3 3 0 0 0 0-6z"></path></svg>
<!-- Amenity- Cooking basics--> <svg xmlns="http://www.w3.org/2000/svg" viewBox="0 0 32 32" aria-hidden="true" role="presentation" focusable="false" style="display: block; height: 24px; width: 24px; fill: currentcolor;"><path d="M26 1a5 5 0 0 1 5 5c0 6.39-1.6 13.19-4 14.7V31h-2V20.7c-2.36-1.48-3.94-8.07-4-14.36v-.56A5 5 0 0 1 26 1zm-9 0v18.12c2.32.55 4 3 4 5.88 0 3.27-2.18 6-5 6s-5-2.73-5-6c0-2.87 1.68-5.33 4-5.88V1zM2 1h1c4.47 0 6.93 6.37 7 18.5V21H4v10H2zm14 20c-1.6 0-3 1.75-3 4s1.4 4 3 4 3-1.75 3-4-1.4-4-3-4zM4 3.24V19h4l-.02-.96-.03-.95C7.67 9.16 6.24 4.62 4.22 3.36L4.1 3.3zm19 2.58v.49c.05 4.32 1.03 9.13 2 11.39V3.17a3 3 0 0 0-2 2.65zm4-2.65V17.7c.99-2.31 2-7.3 2-11.7a3 3 0 0 0-2-2.83z"></path></svg>
<!-- Amenity- Heating--> <svg xmlns="http://www.w3.org/2000/svg" viewBox="0 0 32 32" aria-hidden="true" role="presentation" focusable="false" style="display: block; height: 24px; width: 24px; fill: currentcolor;"><path d="M16 0a5 5 0 0 1 5 4.78v12.98l.26.21a7.98 7.98 0 0 1 2.72 5.43l.02.3v.3a8 8 0 1 1-13.25-6.04l.25-.2V5A5 5 0 0 1 15.56.02l.22-.01zm0 2a3 3 0 0 0-3 2.82V18.78l-.43.3a6 6 0 1 0 7.06.15l-.2-.16-.43-.3V11h-4V9h4V7h-4V5h4a3 3 0 0 0-3-3zm1 11v7.13A4 4 0 0 1 16 28a4 4 0 0 1-1-7.87V13zm-1 9a2 2 0 1 0 0 4 2 2 0 0 0 0-4z"></path></svg>
<!-- Amenity- Iron--> <svg xmlns="http://www.w3.org/2000/svg" viewBox="0 0 32 32" aria-hidden="true" role="presentation" focusable="false" style="display: block; height: 24px; width: 24px; fill: currentcolor;"><path d="M12 28a1 1 0 1 1 0 2 1 1 0 0 1 0-2zm4 0a1 1 0 1 1 0 2 1 1 0 0 1 0-2zm4 0a1 1 0 1 1 0 2 1 1 0 0 1 0-2zm-6-3a1 1 0 1 1 0 2 1 1 0 0 1 0-2zm4 0a1 1 0 1 1 0 2 1 1 0 0 1 0-2zM16.03 3h.3a12.5 12.5 0 0 1 11.82 9.48l.07.3 1.73 7.79.03.14A2 2 0 0 1 28.15 23H2.1a2 2 0 0 1-1.85-1.84v-7.38a5 5 0 0 1 4.77-4.77L5.25 9h9V5h-14V3zm11.53 16H2.25v2H28zM16.24 5v6H5.07a3 3 0 0 0-2.82 2.82V17H27.1l-.84-3.78-.07-.28a10.5 10.5 0 0 0-9.6-7.92L16.32 5z"></path></svg>
<!-- Amenity- Crib--> <svg xmlns="http://www.w3.org/2000/svg" viewBox="0 0 32 32" aria-hidden="true" role="presentation" focusable="false" style="display: block; height: 24px; width: 24px; fill: currentcolor;"><path d="M3 3v4h26V3h2v18a5 5 0 0 1-4 4.9V30h-2v-4H7v4H5v-4.1a5 5 0 0 1-4-4.68V3zm6 6H7v15h2zm4 0h-2v15h2zm4 0h-2v15h2zm4 0h-2v15h2zm4 0h-2v15h2zM5 9H3v12a3 3 0 0 0 2 2.83zm24 0h-2v14.83a3 3 0 0 0 2-2.65V21z"></path></svg>
<!-- Amenity- Coffee maker--> <svg xmlns="http://www.w3.org/2000/svg" viewBox="0 0 32 32" aria-hidden="true" role="presentation" focusable="false" style="display: block; height: 24px; width: 24px; fill: currentcolor;"><path d="M25 2a1 1 0 0 1 .94.65l.03.1 1 4A1 1 0 0 1 26.11 8L26 8h-9v2h-2V8H5v20h3a5 5 0 0 1-.72-4.66l.1-.26 2.52-6.04-1.8-3.6a1 1 0 0 1 .78-1.43L9 12h14a1 1 0 0 1 .94 1.34l-.05.1L22.62 16H24a5 5 0 0 1 5 4.78V25h-2v-4a3 3 0 0 0-2.82-3H22.5l2.12 5.08A5 5 0 0 1 24 28h3v2H4a1 1 0 0 1-1-.88V3a1 1 0 0 1 .88-1H4zM12.65 22a6.64 6.64 0 0 0-2.91.63l-.5 1.22a3 3 0 0 0-.2.68l-.03.23L9 25a3 3 0 0 0 2.82 3h8.19l.23-.01a3 3 0 0 0 2.6-2.02c-1.7-.12-2.93-.67-4.84-1.9l-.37-.23c-2.14-1.4-3.18-1.84-4.98-1.84zm7.68-4h-8.66l-.92 2.19a9.06 9.06 0 0 1 1.9-.19c2.19 0 3.51.52 5.75 1.95l.38.25c1.74 1.13 2.74 1.62 4.03 1.76l-.04-.11zm1.05-4H10.62l1 2h8.76zm2.84-10H5v2h19.72z"></path></svg>
<!-- Amenity- Dining table--> <svg xmlns="http://www.w3.org/2000/svg" viewBox="0 0 32 32" aria-hidden="true" role="presentation" focusable="false" style="display: block; height: 24px; width: 24px; fill: currentcolor;"><path d="M31 9v21h-2v-7h-6v7h-2v-7a2 2 0 0 1 1.85-2H29V9h2zM3 9v12h6a2 2 0 0 1 2 1.85V30H9v-7H3v7H1V9h2zm14-2v2.08a6 6 0 0 1 5 5.7V15h5v2H17v13h-2V17H5v-2h5a6 6 0 0 1 5-5.92V7h2zm-1 4a4 4 0 0 0-4 3.8v.2h8a4 4 0 0 0-4-4z"></path></svg>
<!-- Amenity- Backyard--> <svg xmlns="http://www.w3.org/2000/svg" viewBox="0 0 32 32" aria-hidden="true" role="presentation" focusable="false" style="display: block; height: 24px; width: 24px; fill: currentcolor;"><path d="M16 1a5 5 0 0 1 5 5 5 5 0 0 1 0 10 5 5 0 0 1-4 4.9v4.29A9.04 9.04 0 0 1 23.95 22a8.94 8.94 0 0 1 3.74.81l.31.15v2.33A6.96 6.96 0 0 0 23.95 24a6.88 6.88 0 0 0-6.93 5.87l-.02.15v.1a1 1 0 0 1-.88.87L16 31a1 1 0 0 1-.97-.77l-.02-.12A6.95 6.95 0 0 0 7.97 24 6.96 6.96 0 0 0 4 25.23v-2.31a9.16 9.16 0 0 1 11 2.3V20.9a5 5 0 0 1-4-4.68V16h-.22a5 5 0 0 1 0-10H11v-.22A5 5 0 0 1 16 1zm2.86 14.1a4.98 4.98 0 0 1-5.72 0l-.07.23a3 3 0 1 0 5.85 0zM11 8a3 3 0 1 0 .67 5.93l.23-.07A4.98 4.98 0 0 1 11 11c0-1.06.33-2.05.9-2.86l-.23-.07A3.01 3.01 0 0 0 11 8zm10 0c-.23 0-.45.03-.67.07l-.23.07c.57.8.9 1.8.9 2.86a4.98 4.98 0 0 1-.9 2.86l.23.07A3 3 0 1 0 21 8zm-5 0a3 3 0 1 0 0 6 3 3 0 0 0 0-6zm0-5a3 3 0 0 0-2.93 3.67l.07.23a4.98 4.98 0 0 1 5.72 0l.07-.23A3 3 0 0 0 16 3z"></path></svg>
<!-- Amenity- BBQ grill--> <svg xmlns="http://www.w3.org/2000/svg" viewBox="0 0 32 32" aria-hidden="true" role="presentation" focusable="false" style="display: block; height: 24px; width: 24px; fill: currentcolor;"><path d="M13 2h2c0 2.06-.48 3.34-1.77 5.42l-.75 1.19C11.6 10 11.2 10.9 11.06 12H9.04c.1-1.07.38-1.97.9-3H6a10 10 0 0 0 20 .28V9h-3.77a7.44 7.44 0 0 0-1.17 3h-2.02c.15-1.61.71-2.84 1.91-4.73l.57-.88c1.11-1.79 1.47-2.78 1.47-4.4h2c0 1.93-.4 3.17-1.5 5L28 7v2c0 .68-.06 1.35-.17 2H30v2h-2.68a12.04 12.04 0 0 1-5.9 6.7l4.5 9.89-1.83.82-2-4.41H17v4h-2v-4H9.92L7.9 30.41l-1.82-.82 4.49-9.88A12.04 12.04 0 0 1 4.68 13H2v-2h2.17A12.06 12.06 0 0 1 4 9.3V7h7.13l.39-.6c1.11-1.8 1.47-2.8 1.47-4.4zm-.57 18.46L10.83 24H15v-3.04a11.95 11.95 0 0 1-2.57-.5zm4.57.5V24h4.17l-1.6-3.54c-.69.21-1.4.37-2.13.45zM18 2h2c0 2.06-.48 3.35-1.77 5.42l-.75 1.19C16.6 10 16.2 10.9 16.06 12h-2.02c.15-1.62.71-2.84 1.91-4.74l.57-.88C17.63 4.6 17.99 3.61 17.99 2z"></path></svg>
<!-- Amenity- Sauna--> <svg xmlns="http://www.w3.org/2000/svg" viewBox="0 0 32 32" aria-hidden="true" role="presentation" focusable="false" style="display: block; height: 24px; width: 24px; fill: currentcolor;"><path d="M19 1v2H4v14h1.27a7.52 7.52 0 0 1 3.75-4.65 4.5 4.5 0 1 1 6.96 0A7.51 7.51 0 0 1 19.73 17H28v-4.97h2V29c0 1.05-1 2-2 2H4c-1.05 0-2-1-2-2V3c0-1.05 1-2 2-2h15zM4 19v10h24V19H4zm8.5-12a2.5 2.5 0 0 0-1.15 4.72l.15.07v1.8A5.5 5.5 0 0 0 7.37 17h10.25a5.51 5.51 0 0 0-3.9-3.36l-.22-.05v-1.8a2.5 2.5 0 0 0-1-4.79zM28 1h2c0 2.06-.48 3.34-1.77 5.42l-.75 1.19c-1.06 1.7-1.44 2.68-1.48 4.15V12h-2c0-2.16.52-3.47 1.95-5.73l.57-.88c1.06-1.7 1.44-2.68 1.47-4.15V1zm-5 0h2c0 2.06-.48 3.34-1.77 5.42l-.75 1.19c-1.06 1.7-1.44 2.68-1.48 4.15V12h-2c0-2.16.52-3.47 1.95-5.73l.57-.88c1.06-1.7 1.44-2.68 1.47-4.15V1z"></path></svg>
<!-- Amenity- Free parking--> <svg xmlns="http://www.w3.org/2000/svg" viewBox="0 0 32 32" aria-hidden="true" role="presentation" focusable="false" style="display: block; height: 24px; width: 24px; fill: currentcolor;"><path d="M16 1a15 15 0 1 1 0 30 15 15 0 0 1 0-30zm0 2a13 13 0 1 0 0 26 13 13 0 0 0 0-26zm2 5a5 5 0 0 1 .22 10H13v6h-2V8zm0 2h-5v6h5a3 3 0 0 0 .18-6z"></path></svg>
<!-- Amenity- Elevator--> <svg xmlns="http://www.w3.org/2000/svg" viewBox="0 0 32 32" aria-hidden="true" role="presentation" focusable="false" style="display: block; height: 24px; width: 24px; fill: currentcolor;"><path d="M30 1a1 1 0 0 1 1 .88V30a1 1 0 0 1-.88 1H2a1 1 0 0 1-1-.88V2a1 1 0 0 1 .88-1H2zM3 3v26h12V3zm7 9v6.58l1.8-1.79 1.4 1.42-3.5 3.5a1 1 0 0 1-1.31.08l-.1-.08-3.5-3.5 1.42-1.42L8 18.6V12zm12.39-1.5a1 1 0 0 1 1.22 0l.1.09 3.5 3.5-1.42 1.41L24 13.7V20h-2v-6.3l-1.8 1.8-1.4-1.41 3.5-3.5zM17 29h12V3H17z"></path></svg>
<!-- Message search--> <svg xmlns="http://www.w3.org/2000/svg" viewBox="0 0 32 32" aria-hidden="true" role="presentation" focusable="false" style="display: block; fill: none; height: 16px; width: 16px; stroke: currentcolor; stroke-width: 3; overflow: visible;"><path fill="none" d="M13 24a11 11 0 1 0 0-22 11 11 0 0 0 0 22zm8-3 9 9"></path></svg>
